# xmcd CD database file
#
# Track frame offsets:
#	150
#	12067
#	34467
#	49017
#	64440
#	86312
#	99680
#	117747
#	127642
#	141802
#
# Disc length: 2228 seconds
#
# Revision: 0
# Processed by: cddbd v1.4PL0 Copyright (c) Steve Scherf et al.
# Submitted via: CDex 1.50Beta7
#
DISCID=8508b20a
DTITLE=Various Artist - Rockin' Country
DYEAR=1995
DGENRE=Country
TTITLE0=Mel McDaniel/Stand on it
TTITLE1=Chris LeDoux/Tougher than the Rest
TTITLE2=Suzy Bogguss/Heartache
TTITLE3=Billy Dean/We Just Disagree
TTITLE4=Ronnie Milsap/True Believer
TTITLE5=Crystal Gayle/One Less Set of Footsteps
TTITLE6=Skip Ewing/Sorry Seems to be the Hardest Word
TTITLE7=New Grass Revival/I'm Down
TTITLE8=Susy Bogguss/Drive South
TTITLE9=Billy Dean/Steamroller
EXTD=YEAR: 1995
EXTT0=
EXTT1=
EXTT2=
EXTT3=
EXTT4=
EXTT5=
EXTT6=
EXTT7=
EXTT8=
EXTT9=
PLAYORDER=
